<?xml version="1.0" encoding="UTF-8"?><svg id="Layer_2" xmlns="http://www.w3.org/2000/svg" xmlns:xlink="http://www.w3.org/1999/xlink" viewBox="0 0 1247.86 462.05"><defs><style>.cls-1{fill:url(#linear-gradient-2);}.cls-2{fill:#fff;}.cls-3{fill:#f9f9f9;}.cls-4{fill:url(#linear-gradient-3);}.cls-5{fill:url(#linear-gradient);}</style><linearGradient id="linear-gradient" x1="-614.16" y1="6527.62" x2="-613.63" y2="6527.62" gradientTransform="translate(-3033077.38 -285088.33) rotate(-90) scale(464.77)" gradientUnits="userSpaceOnUse"><stop offset="0" stop-color="#0da6ca"/><stop offset=".17" stop-color="#0da6ca"/><stop offset=".32" stop-color="#15bfd8"/><stop offset=".54" stop-color="#1edae7"/><stop offset=".73" stop-color="#24ebf1"/><stop offset=".87" stop-color="#26f1f4"/><stop offset="1" stop-color="#26f1f4"/></linearGradient><linearGradient id="linear-gradient-2" x1="-614.49" y1="6529.32" x2="-613.95" y2="6529.32" gradientTransform="translate(-4083470.27 -383899.59) rotate(-90) scale(625.45)" xlink:href="#linear-gradient"/><linearGradient id="linear-gradient-3" x1="-614.56" y1="6529.5" x2="-614.02" y2="6529.5" gradientTransform="translate(-4052720.77 -381077.42) rotate(-90) scale(620.7)" xlink:href="#linear-gradient"/></defs><g id="Layer_1-2"><g id="Layer_2-2"><g id="Layer_1-2"><path class="cls-3" d="m606.55,149.29c.04,12.55-3.3,24.89-9.68,35.7-3.08,5.21-6.79,10.02-11.06,14.32-13.24,13.35-31.27,20.83-50.07,20.79h-42.66V78.48h42.66c6.36-.02,12.69.82,18.82,2.52,11.83,3.26,22.61,9.56,31.25,18.27,4.26,4.3,7.98,9.11,11.05,14.32,6.38,10.82,9.72,23.15,9.68,35.7Zm-28.34,0c.04-5.67-1.09-11.28-3.31-16.49-2.14-5.03-5.22-9.61-9.09-13.48-3.89-3.88-8.48-6.98-13.53-9.13-5.22-2.25-10.86-3.39-16.54-3.36h-14.12v84.92h14.12c5.68.03,11.31-1.09,16.54-3.31,10.21-4.29,18.33-12.41,22.61-22.61,2.22-5.23,3.34-10.85,3.31-16.53Z"/><path class="cls-3" d="m664.51,194.21c1.03.32,2.09.54,3.16.64,1.05.1,2.11.15,3.16.15,2.57,0,5.13-.36,7.6-1.09,2.42-.72,4.73-1.76,6.86-3.11,2.14-1.35,4.07-3.02,5.73-4.94,1.68-1.94,3.06-4.12,4.1-6.47l19.75,19.85c-2.48,3.53-5.38,6.75-8.64,9.58-3.23,2.81-6.77,5.23-10.57,7.21-3.79,1.98-7.8,3.48-11.95,4.49-4.22,1.02-8.54,1.54-12.89,1.53-7.44,0-14.44-1.38-20.99-4.15-6.43-2.68-12.27-6.61-17.18-11.55-4.91-4.94-8.77-10.81-11.6-17.62-2.83-6.81-4.25-14.3-4.25-22.47s1.42-16,4.25-22.91c2.83-6.91,6.7-12.81,11.6-17.68,4.92-4.88,10.76-8.75,17.18-11.36,6.55-2.7,13.55-4.05,20.99-4.05,4.36,0,8.7.52,12.93,1.58,8.37,2.08,16.12,6.12,22.61,11.8,3.28,2.85,6.19,6.08,8.69,9.64l-50.56,60.92Zm13.82-55.59c-1.2-.45-2.44-.74-3.71-.89-1.26-.13-2.53-.2-3.8-.2-3.57-.02-7.11.67-10.42,2.02-3.2,1.31-6.1,3.28-8.49,5.78-2.47,2.61-4.4,5.68-5.68,9.04-1.39,3.52-2.08,7.49-2.07,11.9,0,.99.05,2.11.15,3.36.1,1.25.26,2.52.49,3.8s.51,2.52.84,3.71c.3,1.1.73,2.16,1.28,3.16l31.41-41.69Z"/><path class="cls-5" d="m762.87,384.56h-26.96v-243.39h-13.13v-26.85h13.13v-5.04c-.04-6.31,1.22-12.57,3.71-18.37,2.38-5.6,5.83-10.68,10.15-14.96,4.35-4.27,9.46-7.69,15.07-10.07,5.8-2.49,12.05-3.75,18.37-3.71h20.24v26.87h-20.24c-2.76-.03-5.49.49-8.05,1.53-2.4.98-4.58,2.42-6.42,4.25-3.82,3.84-5.93,9.05-5.87,14.47v5.04h33.08v26.85h-33.08v243.39Z"/><path class="cls-3" d="m839.69,220.08h-27.16v-105.76h27.16v105.76Zm4.54-137.05c.02,2.41-.47,4.8-1.43,7.01-.92,2.13-2.25,4.06-3.9,5.69-1.67,1.63-3.63,2.94-5.78,3.85-4.51,1.91-9.61,1.91-14.12,0-2.14-.91-4.08-2.21-5.73-3.85-1.63-1.63-2.93-3.56-3.85-5.68-1.91-4.46-1.91-9.51,0-13.97,1.82-4.32,5.26-7.76,9.58-9.58,4.51-1.91,9.61-1.91,14.12,0,2.15.92,4.1,2.22,5.78,3.85,1.66,1.64,2.99,3.58,3.9,5.73.95,2.19,1.44,4.56,1.43,6.95h0Z"/><path class="cls-3" d="m887.19,220.08h-26.96v-105.76h6.52l8.89,10.27c8.75-7.96,20.16-12.36,31.99-12.35,6.28-.03,12.5,1.23,18.27,3.71,5.61,2.39,10.71,5.85,15.01,10.17,4.3,4.35,7.74,9.48,10.12,15.11,2.48,5.82,3.74,12.09,3.71,18.42v60.43h-26.96v-60.43c.01-2.7-.52-5.37-1.58-7.85-2.05-4.86-5.91-8.74-10.76-10.81-2.46-1.06-5.12-1.6-7.8-1.58-2.75-.02-5.47.52-8,1.58-4.91,2.03-8.81,5.91-10.86,10.81-1.06,2.48-1.59,5.15-1.58,7.85v60.43Z"/><path class="cls-3" d="m1015.96,194.21c1.03.32,2.09.54,3.16.64,1.05.1,2.11.15,3.16.15,2.57,0,5.14-.36,7.6-1.09,2.42-.72,4.73-1.76,6.86-3.11,2.14-1.35,4.07-3.02,5.73-4.94,1.68-1.94,3.06-4.12,4.1-6.47l19.75,19.85c-2.48,3.53-5.38,6.75-8.64,9.58-3.23,2.81-6.77,5.23-10.56,7.21-3.79,1.98-7.8,3.48-11.95,4.49-4.22,1.02-8.55,1.54-12.89,1.53-7.44,0-14.44-1.38-20.98-4.15-6.43-2.69-12.27-6.61-17.18-11.55-4.9-4.94-8.77-10.81-11.59-17.62-2.83-6.81-4.24-14.3-4.25-22.47,0-8.36,1.42-16,4.25-22.91,2.83-6.91,6.7-12.81,11.59-17.68,4.92-4.88,10.76-8.74,17.18-11.36,6.55-2.7,13.54-4.05,20.98-4.05,4.36,0,8.71.52,12.94,1.58,8.37,2.08,16.12,6.12,22.61,11.8,3.27,2.85,6.19,6.09,8.69,9.64l-50.56,60.92Zm13.82-55.59c-1.2-.45-2.44-.74-3.71-.89-1.26-.13-2.53-.2-3.8-.2-3.57-.02-7.11.67-10.42,2.02-3.2,1.31-6.1,3.28-8.49,5.78-2.47,2.61-4.4,5.68-5.68,9.04-1.38,3.52-2.07,7.49-2.07,11.9,0,.99.05,2.11.15,3.36s.26,2.52.49,3.8c.23,1.28.51,2.52.84,3.71.3,1.1.73,2.16,1.28,3.16l31.41-41.69Z"/><path class="cls-3" d="m1181.46,220.08h-6.52l-10.47-14.52c-2.58,2.32-5.3,4.48-8.15,6.47-2.86,2-5.88,3.75-9.04,5.23-3.13,1.47-6.38,2.64-9.73,3.51-3.31.85-6.71,1.28-10.12,1.28-7.44,0-14.44-1.4-20.98-4.2-6.44-2.72-12.28-6.68-17.18-11.65-4.91-4.97-8.77-10.86-11.6-17.68s-4.24-14.23-4.25-22.26c0-7.97,1.42-15.37,4.25-22.22s6.7-12.77,11.6-17.78c4.91-5.01,10.75-9.01,17.2-11.77,6.55-2.83,13.54-4.24,20.98-4.25,2.46,0,4.92.21,7.36.59,2.53.39,5.01,1.04,7.41,1.93,2.39.88,4.66,2.06,6.77,3.51,2.09,1.43,3.9,3.24,5.33,5.33v-49.38h27.15v147.84Zm-27.15-53.82c0-3.68-.72-7.32-2.12-10.72-1.37-3.38-3.32-6.49-5.78-9.18-2.42-2.65-5.32-4.83-8.54-6.42-3.24-1.61-6.8-2.43-10.42-2.42-3.57-.02-7.11.65-10.42,1.97-3.2,1.28-6.09,3.21-8.49,5.68-2.41,2.47-4.3,5.49-5.68,9.04s-2.07,7.57-2.08,12.06c-.02,7.48,2.74,14.69,7.75,20.24,2.39,2.62,5.27,4.74,8.49,6.22,3.26,1.51,6.82,2.29,10.42,2.27,3.61.01,7.18-.82,10.42-2.43,3.22-1.59,6.12-3.76,8.54-6.42,2.45-2.7,4.41-5.8,5.78-9.18,1.4-3.4,2.12-7.04,2.12-10.71Z"/><path class="cls-2" d="m484.78,283.44c-.04-5.67,1.1-11.29,3.36-16.49,4.36-10.16,12.46-18.25,22.61-22.61,5.2-2.25,10.82-3.4,16.49-3.36h64.98v28.34h-64.97c-7.73-.07-14.06,6.15-14.12,13.88,0,.08,0,.16,0,.24-.01,1.91.36,3.81,1.09,5.58,1.39,3.42,4.1,6.14,7.5,7.55,1.75.73,3.63,1.1,5.53,1.09h28.34c5.68-.04,11.31,1.09,16.54,3.31,10.21,4.29,18.33,12.41,22.61,22.62,4.41,10.57,4.41,22.46,0,33.03-2.14,5.03-5.22,9.61-9.09,13.48-3.89,3.88-8.48,6.98-13.53,9.13-5.22,2.25-10.85,3.39-16.54,3.36h-62.91v-28.34h62.91c7.8,0,14.13-6.31,14.13-14.11s-6.31-14.13-14.11-14.13h-28.37c-5.67.04-11.29-1.1-16.49-3.36-10.17-4.36-18.27-12.48-22.61-22.66-2.25-5.22-3.4-10.85-3.37-16.54Z"/><path class="cls-2" d="m715.96,328.77c0,7.9-1.42,15.25-4.25,22.07-2.83,6.81-6.68,12.71-11.55,17.68-4.9,4.99-10.72,8.98-17.13,11.75-6.55,2.87-13.58,4.3-21.08,4.3-7.44,0-14.44-1.43-20.98-4.3-6.43-2.78-12.26-6.77-17.18-11.75-4.91-4.97-8.77-10.86-11.6-17.68-2.83-6.81-4.25-14.17-4.25-22.07,0-8.04,1.42-15.48,4.25-22.32,2.83-6.84,6.7-12.75,11.6-17.72,4.91-4.98,10.75-8.95,17.18-11.7,6.55-2.83,13.54-4.25,20.98-4.25s14.53,1.33,21.08,4c6.42,2.58,12.25,6.45,17.13,11.36,4.87,4.91,8.72,10.8,11.55,17.68,2.83,6.88,4.25,14.53,4.25,22.95Zm-27.16,0c0-4.35-.71-8.28-2.12-11.8-1.32-3.37-3.28-6.46-5.78-9.09-2.41-2.52-5.32-4.5-8.54-5.83-6.68-2.7-14.15-2.7-20.84,0-3.21,1.32-6.11,3.3-8.49,5.83-2.46,2.63-4.39,5.72-5.68,9.09-1.38,3.52-2.07,7.46-2.07,11.8-.04,3.88.67,7.74,2.07,11.36,1.3,3.36,3.23,6.44,5.68,9.09,2.4,2.57,5.29,4.63,8.49,6.07,3.27,1.48,6.82,2.24,10.42,2.22,3.58.02,7.12-.68,10.42-2.07,3.21-1.35,6.12-3.34,8.55-5.84,2.51-2.62,4.47-5.7,5.78-9.09,1.4-3.55,2.11-7.46,2.11-11.74h0Z"/><path class="cls-2" d="m864.01,371.26c-2.2,2-4.52,3.86-6.96,5.58-2.45,1.73-5.04,3.25-7.75,4.54-2.68,1.28-5.48,2.3-8.35,3.06-2.85.75-5.79,1.14-8.74,1.14-6.52,0-12.64-1.15-18.37-3.46-5.63-2.24-10.75-5.58-15.06-9.83-4.31-4.25-7.7-9.42-10.17-15.5-2.47-6.09-3.7-12.92-3.71-20.49v-58.46h26.86v58.46c0,3.55.54,6.73,1.62,9.53.98,2.62,2.48,5.03,4.4,7.06,1.82,1.89,4.03,3.38,6.47,4.34,2.53,1,5.23,1.5,7.95,1.48,2.73,0,5.43-.65,7.85-1.92,2.46-1.27,4.65-3,6.47-5.09,1.85-2.12,3.32-4.54,4.34-7.16,1.04-2.62,1.58-5.42,1.58-8.25v-58.46h26.96v105.76h-6.52l-8.89-12.34Z"/><path class="cls-2" d="m952.98,383.6c-6.31.04-12.56-1.22-18.37-3.71-11.35-4.84-20.39-13.88-25.23-25.23-2.49-5.8-3.75-12.06-3.71-18.37v-31.39h-13.13v-26.86h13.13v-42.27h26.86v42.26h40.88v26.86h-40.88v31.4c-.02,2.73.52,5.44,1.58,7.95,1.02,2.42,2.49,4.61,4.34,6.47,1.87,1.87,4.08,3.36,6.52,4.4,2.53,1.09,5.25,1.64,8,1.62h20.44v26.86h-20.44Z"/><path class="cls-2" d="m1020.33,249.1c.02,2.41-.47,4.8-1.43,7.01-.92,2.13-2.25,4.05-3.9,5.68-1.67,1.63-3.63,2.94-5.78,3.85-4.51,1.91-9.61,1.91-14.12,0-4.31-1.82-7.74-5.23-9.58-9.53-1.91-4.46-1.91-9.51,0-13.97,1.82-4.32,5.26-7.76,9.58-9.58,4.51-1.91,9.61-1.91,14.12,0,2.15.92,4.11,2.22,5.78,3.85,1.66,1.64,2.98,3.58,3.9,5.73.95,2.2,1.44,4.57,1.43,6.96Zm-4.64,134.5h-27.16v-105.76h27.16v105.76Z"/><path class="cls-2" d="m1138.44,329.78c0,7.9-1.42,15.26-4.25,22.07s-6.68,12.71-11.56,17.68c-4.9,4.99-10.72,8.98-17.13,11.75-6.55,2.86-13.58,4.29-21.08,4.3-7.22.05-14.36-1.42-20.98-4.3-6.43-2.78-12.26-6.77-17.18-11.75-4.91-4.97-8.77-10.86-11.59-17.68-2.82-6.82-4.24-14.17-4.25-22.07,0-8.04,1.42-15.48,4.25-22.32,2.83-6.84,6.7-12.75,11.59-17.72,4.91-4.98,10.75-8.95,17.18-11.7,6.55-2.83,13.54-4.24,20.98-4.25,7.51,0,14.53,1.33,21.08,4,6.42,2.58,12.25,6.45,17.13,11.36,4.87,4.91,8.72,10.8,11.55,17.68,2.83,6.88,4.25,14.53,4.25,22.95Zm-27.16,0c0-4.34-.71-8.28-2.12-11.8-1.32-3.37-3.28-6.46-5.78-9.08-2.41-2.52-5.32-4.5-8.54-5.83-6.68-2.7-14.15-2.7-20.84,0-3.21,1.32-6.11,3.3-8.49,5.83-2.46,2.63-4.39,5.72-5.68,9.08-1.38,3.52-2.07,7.46-2.07,11.8-.04,3.88.67,7.74,2.07,11.36,1.3,3.36,3.23,6.44,5.68,9.08,2.4,2.57,5.29,4.63,8.49,6.07,3.27,1.48,6.82,2.24,10.42,2.22,3.58.02,7.12-.68,10.42-2.07,3.21-1.35,6.11-3.33,8.54-5.83,2.51-2.62,4.47-5.7,5.78-9.09,1.41-3.55,2.12-7.47,2.12-11.75h0Z"/><path class="cls-2" d="m1180.3,383.6h-26.95v-105.76h6.52l8.89,10.27c8.75-7.96,20.16-12.36,31.99-12.35,6.28-.03,12.5,1.23,18.27,3.71,5.61,2.39,10.71,5.84,15.01,10.17,4.3,4.35,7.74,9.48,10.12,15.11,2.48,5.82,3.74,12.09,3.71,18.42v60.43h-26.96v-60.44c.01-2.7-.53-5.37-1.58-7.85-1.02-2.42-2.49-4.61-4.34-6.47-1.84-1.84-4.02-3.32-6.42-4.35-2.46-1.06-5.12-1.59-7.8-1.58-2.75-.02-5.47.52-8,1.58-4.91,2.03-8.81,5.92-10.86,10.81-1.06,2.48-1.6,5.15-1.59,7.85v60.43Z"/><path class="cls-1" d="m171.21,430.66h148.9c6.79,0,13.07-3.62,16.46-9.51l100.37-173.84c3.4-5.88,3.4-13.13,0-19.01l-71.02-123c-5.09-9.18-16.66-12.5-25.85-7.4-9.18,5.09-12.5,16.66-7.4,25.85.11.19.22.38.33.57l65.53,113.5-89.4,154.84h-137.93c-10.5,0-19.01,8.51-19.01,19.01s8.51,19.01,19.01,19.01h0Z"/><path class="cls-4" d="m257.38,44.96H119.37c-6.79,0-13.07,3.62-16.46,9.51L2.55,228.31c-3.4,5.88-3.4,13.13,0,19.01l69.55,120.46c5.41,9,17.09,11.91,26.09,6.51,8.78-5.28,11.8-16.56,6.84-25.52l-64.07-110.96,89.4-154.83h127.03c10.5.26,19.22-8.04,19.47-18.54.26-10.5-8.04-19.22-18.54-19.47-.31,0-.63,0-.94,0h0Z"/><path class="cls-2" d="m362.48,22.86l-73.69,124.13,57.4,99.43-58.79,101.82h-117.57l-63.73,106.48c-4.23,7.12-13.42,9.47-20.54,5.24-7.12-4.23-9.47-13.42-5.24-20.54L336.7,7.55c4.11-7.19,13.27-9.68,20.45-5.57,7.19,4.11,9.68,13.27,5.57,20.45-.08.14-.16.28-.25.42h0Z"/></g></g></g></svg>